<?xml version="1.0" encoding="UTF-8"?>
<svg id="Capa_1" data-name="Capa 1" xmlns="http://www.w3.org/2000/svg" width="268" height="164" viewBox="0 0 268 164">
  <defs>
    <style>
      .cls-1 {
        isolation: isolate;
      }

      .cls-2 {
        fill: #4f98b5;
      }

      .cls-3 {
        fill: #9db154;
      }
    </style>
  </defs>
  <g class="cls-1">
    <g class="cls-1">
      <path class="cls-2" d="M13.06,138.06c0-2.92,3.4-5.35,3.89-8.26.32-2.59.49-3.57,2.11-5.67,3.56-3.56,1.46-8.59,6.64-12.8,1.13-1.3.32-2.92.81-4.54.65-1.78,2.27-2.92,2.59-4.86.49-2.27.65-2.43,2.11-4.05.81-.97.49-3.24.81-4.54.81-2.92,1.46-4.05,3.24-6.32,2.27-4.05,3.89-9.07,4.38-10.86.81-3.73,2.27-6.32,4.38-9.4,2.11-2.75.97-5.51,4.21-10.05,2.27-3.08,2.11-5.51,3.08-8.26,1.46-4.21,2.11-5.35,5.19-8.43,1.3-1.78.65-3.56,1.3-5.67.81-2.43,2.75-4.05,3.24-6.48.97-5.19,5.51-8.59,10.37-8.59,5.83,0,9.4,3.56,11.02,9.72.32,1.62,2.43,3.4,3.4,4.86,1.94,3.08,2.43,4.86,3.56,8.43.97,3.24,3.24,5.35,4.54,8.59,1.78,4.86,5.67,10.05,6.32,13.29l2.27,5.67c1.62,2.11,3.08,4.54,3.08,6l-.32.81.49,1.3c4.38,4.38,4.7,6.64,4.7,9.4v1.46c.32,1.62,1.94,2.11,2.92,3.57,1.13,1.78.81,3.89,2.11,5.51,1.46,1.78,1.3,2.11,1.62,4.21.32,1.46,2.27,2.59,2.92,3.73,1.78,2.59,1.94,3.89,2.75,6.81.65,2.59,2.59,4.05,3.73,6.64,1.3,4.86,4.7,8.75,6,13.77.49,1.62,3.08,4.05,3.08,5.67,0,2.59-2.92,2.75-4.54,2.75h-14.42c-3.24,0-4.7.49-4.7-3.4v-.32c0-1.13-4.05-3.73-4.05-7.94,0-1.62-.49-1.3-1.46-2.11-2.75-2.59-3.89-6-4.21-9.56,0-.81-6.64-1.78-9.88-1.78-3.73,0-5.83.81-7.94.81s-5.35-.97-8.26-.97c-3.08.65-6.81,1.13-10.05,1.13s-4.86-1.78-9.24-1.78c-2.27,0-3.73,1.3-6.81,1.3-1.3,0-2.43-.16-3.56-.32-3.56,7.13-6.48,14.91-9.24,21.87-1.13,2.75-2.43,3.08-4.54,3.08h-14.58c-.49,0-.97.16-1.3.16-.16,0-.32,0-.49-.16-2.27-.49-3.24-1.78-3.24-3.4ZM67.5,66.44c-1.13,1.78-.97,4.21-1.94,6.16l-.97,1.94c-.32.97-.81,1.94-1.62,2.75-2.11,5.02-2.11,7.45-5.02,9.72l-.65.81c0,.16-.16.32-.16.65s.16.81.16,1.13c0,1.94-.65,3.89-1.62,5.67h.49c.32.16.81.16,1.3.16,4.54,0,8.75-.97,12.8-.97s7.62.32,11.83.81c2.59,0,4.86-.65,7.78-.65l-1.94-3.4c-1.62-2.92-1.62-6-3.24-8.75-.65-.97-1.62-2.11-2.27-3.24l-.49-1.46c-.65-1.3-3.08-5.83-3.08-6.64,0-.32.16-.65.49-1.13l-.97-.81c-2.43-3.08-2.11-7.62-4.7-10.21-.49-.49-.97-1.13-1.3-1.78-1.46,3.24-3.08,6.16-4.86,9.24Z"/>
    </g>
    <g class="cls-1">
      <path class="cls-3" d="M161.01,26.5c0,2.43-.97,5.67-.97,8.26,0,3.24.81,5.02.81,6.81,0,1.62-.97,4.38-.97,6.64,0,3.08,1.13,6,1.13,9.07,0,2.59-.49,4.05-1.62,7.29-.16.32-.16.65-.16.97,0,1.78,1.3,3.4,1.3,5.67,0,1.94-.65,3.89-.65,5.83,0,1.62.49,3.08.49,3.89,0,1.13-.65,1.94-.65,4.21,0,1.94,1.13,4.21,1.13,5.83.49-.32.49-.81.97-1.62,2.92-4.38,7.94-5.83,10.21-10.21,1.46-3.08,2.75-4.54,5.35-6.81,1.3-1.13,1.62-4.21,2.27-5.67,1.62-3.73,3.4-5.51,4.54-10.86,0-4.86,3.89-11.34,3.89-15.55,0-1.3-.16-2.59-.16-4.05.16-1.78.81-3.73.81-5.67,0-1.46-.32-2.92-.32-4.05,0-4.37,11.18-3.73,18.31-4.05,3.4.49,4.38,2.11,4.38,4.54,0,3.57-1.13,6.81-1.13,9.88,0,1.95.16,3.57.16,4.7,0,2.59-2.11,5.67-2.43,9.07v3.08c0,5.35-2.27,9.07-5.02,12.96-1.46,2.11-.65,4.38-1.62,6.81-1.13,2.92-3.08,4.38-4.21,7.13-1.46,3.57-4.54,4.54-5.51,8.75,1.78.49,4.05,2.27,6,2.75,3.08.81,4.7.97,7.29,3.24,1.13,1.13,1.94,2.92,3.4,3.4,2.92,1.13,1.62,1.62,5.02,3.89,1.46,1.13,2.43,1.46,3.73,2.92,1.13,1.78.81,3.4,2.27,4.54,3.56,2.11,6.48,4.7,6.48,11.18.32.97.97,1.78,1.46,2.59,1.62,2.43,1.46,3.73,1.46,6.48v.81c0,2.27,1.62,4.86,1.62,7.29,0,1.95-1.3,2.59-4.38,2.92-7.13,0-18.47.49-18.47-2.11,0-.65.32-1.3.32-2.11,0-1.3-.81-2.27-.81-3.4v-1.78c0-1.94-5.18-10.53-4.7-10.37-2.59-.97-3.24-4.38-4.86-5.02-2.92-.65-5.51-4.05-5.67-4.05-2.43,0-4.86-.16-6.97-2.43-.49-.65-.49-1.13-1.13-1.13s-1.62.65-2.27.65c-1.94,0-3.56-2.27-4.05-2.27-1.13,0-2.27.97-3.24.97-.49,0-.97,0-1.3-.16-3.57,2.27-7.94,5.35-11.99,6.81,0,2.59.49,4.86.49,6.97,0,2.92-.81,5.51-.81,9.24,0,1.94.65,4.7.65,6.64,0,3.56-3.24,3.73-6,3.73h-6.97c-6.48,0-9.24-.49-9.24-3.08,0-.65.16-1.46.16-2.43,0-1.62-.49-3.4-.49-4.86,0-2.43,1.46-4.86,1.46-7.29,0-.97-1.3-3.89-1.3-6.48,0-.65,0-1.3.16-1.94v-1.13c0-1.94.32-4.05.32-5.35-.49-1.94-.81-3.89-.81-5.83,0-2.75,1.13-5.51,1.13-8.26,0-2.59-1.13-5.18-1.13-7.45s.97-4.54.97-7.29c0-2.59-.81-5.19-.81-8.1,0-2.27.81-4.7.81-6.97,0-3.89-1.13-7.62-1.13-11.5,0-3.4.81-6.97.81-10.69,0-1.94-.49-3.89-.49-6,0-1.94.32-3.89.32-5.83,0-1.78-.32-3.4-.32-4.86,0-4.7,11.18-3.4,18.31-3.4,3.4.65,4.38,1.62,4.38,3.73Z"/>
    </g>
  </g>
</svg>