<?xml version="1.0" encoding="UTF-8"?>
<svg id="Capa_1" data-name="Capa 1" xmlns="http://www.w3.org/2000/svg" width="718.84" height="223.42" viewBox="0 0 718.84 223.42">
  <defs>
    <style>
      .cls-1 {
        isolation: isolate;
      }

      .cls-2 {
        fill: #4f98b5;
      }

      .cls-3 {
        fill: #9db154;
      }
    </style>
  </defs>
  <g>
    <g class="cls-1">
      <g class="cls-1">
        <path class="cls-2" d="M21,153.15c0-2.92,3.4-5.35,3.89-8.26.32-2.59.49-3.57,2.11-5.67,3.56-3.56,1.46-8.59,6.64-12.8,1.13-1.3.32-2.92.81-4.54.65-1.78,2.27-2.92,2.59-4.86.49-2.27.65-2.43,2.11-4.05.81-.97.49-3.24.81-4.54.81-2.92,1.46-4.05,3.24-6.32,2.27-4.05,3.89-9.07,4.38-10.86.81-3.73,2.27-6.32,4.38-9.4,2.11-2.75.97-5.51,4.21-10.05,2.27-3.08,2.11-5.51,3.08-8.26,1.46-4.21,2.11-5.35,5.19-8.43,1.3-1.78.65-3.56,1.3-5.67.81-2.43,2.75-4.05,3.24-6.48.97-5.19,5.51-8.59,10.37-8.59,5.83,0,9.4,3.56,11.02,9.72.32,1.62,2.43,3.4,3.4,4.86,1.94,3.08,2.43,4.86,3.56,8.43.97,3.24,3.24,5.35,4.54,8.59,1.78,4.86,5.67,10.05,6.32,13.29l2.27,5.67c1.62,2.11,3.08,4.54,3.08,6l-.32.81.49,1.3c4.38,4.38,4.7,6.64,4.7,9.4v1.46c.32,1.62,1.94,2.11,2.92,3.57,1.13,1.78.81,3.89,2.11,5.51,1.46,1.78,1.3,2.11,1.62,4.21.32,1.46,2.27,2.59,2.92,3.73,1.78,2.59,1.94,3.89,2.75,6.81.65,2.59,2.59,4.05,3.73,6.64,1.3,4.86,4.7,8.75,6,13.77.49,1.62,3.08,4.05,3.08,5.67,0,2.59-2.92,2.75-4.54,2.75h-14.42c-3.24,0-4.7.49-4.7-3.4v-.32c0-1.13-4.05-3.73-4.05-7.94,0-1.62-.49-1.3-1.46-2.11-2.75-2.59-3.89-6-4.21-9.56,0-.81-6.64-1.78-9.88-1.78-3.73,0-5.83.81-7.94.81s-5.35-.97-8.26-.97c-3.08.65-6.81,1.13-10.05,1.13s-4.86-1.78-9.24-1.78c-2.27,0-3.73,1.3-6.81,1.3-1.3,0-2.43-.16-3.56-.32-3.56,7.13-6.48,14.91-9.24,21.87-1.13,2.75-2.43,3.08-4.54,3.08h-14.58c-.49,0-.97.16-1.3.16-.16,0-.32,0-.49-.16-2.27-.49-3.24-1.78-3.24-3.4ZM75.44,81.53c-1.13,1.78-.97,4.21-1.94,6.16l-.97,1.94c-.32.97-.81,1.94-1.62,2.75-2.11,5.02-2.11,7.45-5.02,9.72l-.65.81c0,.16-.16.32-.16.65s.16.81.16,1.13c0,1.94-.65,3.89-1.62,5.67h.49c.32.16.81.16,1.3.16,4.54,0,8.75-.97,12.8-.97s7.62.32,11.83.81c2.59,0,4.86-.65,7.78-.65l-1.94-3.4c-1.62-2.92-1.62-6-3.24-8.75-.65-.97-1.62-2.11-2.27-3.24l-.49-1.46c-.65-1.3-3.08-5.83-3.08-6.64,0-.32.16-.65.49-1.13l-.97-.81c-2.43-3.08-2.11-7.62-4.7-10.21-.49-.49-.97-1.13-1.3-1.78-1.46,3.24-3.08,6.16-4.86,9.24Z"/>
      </g>
      <g class="cls-1">
        <path class="cls-2" d="M212.36,71.48c7.62,0,9.07.65,9.07,3.56,0,1.3-.32,3.08-.32,4.7,0,2.11.32,4.21.32,6.16,0,2.27-.65,4.54-.65,6.97.49,3.56.81,7.13.81,10.53,0,3.73-.97,7.62-.97,11.34,0,2.43.81,4.86.81,7.29,0,2.92-.97,5.51-.97,8.26,0,2.92,1.13,5.18,1.13,7.45,0,2.43-1.13,5.35-1.13,7.94,0,2.75,1.13,5.67,1.13,8.59,0,3.08-1.62,7.45-1.62,8.26,0,1.94,1.3,4.38,1.3,6.48,0,2.59-1.46,5.35-1.46,6.32,0,2.59,1.46,5.02,1.46,7.45,0,1.62-.32,3.4-.32,5.19v2.43c0,1.78-.81,3.24-6.8,3.24-2.27,0-4.7-.16-6.32-.16-.81,0-1.78.16-2.75.16-2.43,0-5.35-.49-5.35-3.89,0-2.11.65-4.86.65-6.97,0-3.4-.81-6-.81-8.75,0-2.43.49-5.35.49-8.26,0-1.3,0-2.27-.16-4.05,0-1.46,0-2.92.16-4.21-3.73,0-6.97,1.13-10.53,1.13-4.7.16-8.26-.65-12.48-1.94-13.94-4.54-17.01-7.62-23.33-14.1-9.4-10.21-7.78-17.01-9.24-25.44,0-1.46-.65-3.89-.65-5.35.16-3.24,1.62-12.8,4.21-17.99,1.62-3.08,4.54-5.18,6.16-8.43,5.83-11.34,17.82-16.37,32.73-16.37,5.02,0,9.07,2.27,13.12,4.21,1.78-2.27,8.1-1.78,12.31-1.78ZM201.01,135.65c0-2.27-.81-3.24-.81-4.38,0-.97.49-2.43.49-4.21,0-1.94-.65-3.89-.65-5.83,0-2.27,1.13-3.89,1.13-6v-.81c-1.13-3.24-1.62-4.86-1.62-7.45,0-2.43.49-5.67,1.13-8.26-4.05-.97-7.94-8.75-15.72-8.75-4.21.49-14.58,3.73-16.04,8.75-.97,1.94-4.7,9.56-4.7,13.61,0,.16,1.62,13.45,3.08,14.1,1.46,1.62,7.29,7.78,8.26,7.78,2.11,2.43,7.78,1.94,11.18,3.08.97.49,2.43,1.3,3.24,1.3.32,0,.65-.16,1.13-.32,3.4-1.46,6.32-1.78,9.72-1.78,0-.32.16-.65.16-.81Z"/>
        <path class="cls-2" d="M312.01,74.72c0,1.95-.81,4.54-.81,6.32,0,2.27.65,4.21.65,5.67s-.97,4.05-.97,6c.65,2.27,1.13,4.21,1.13,6.97,0,2.11-.32,3.24-1.46,6-.16.32-.16.65-.16.81,0,1.62,1.13,2.92,1.13,4.7s-.65,3.24-.65,4.86c0,1.13.49,2.27.49,3.4,0,1.94-.97,3.73-.97,5.67v3.4c0,8.42-10.53,18.96-11.99,20.25-8.43,5.67-12.8,8.59-20.9,8.59-.49.81-1.3,1.13-2.43,1.13-.81,0-1.62-.16-2.75-.32-.49,0-1.13.16-1.62.16-3.08,0-3.4-1.62-6.16-1.62-3.56,0-5.18-.81-8.26-2.59-4.86-4.86-13.29-5.35-15.39-15.72-.81-2.27-2.75-3.08-3.89-5.67-1.46-3.24-1.94-9.07-2.11-11.5,0-.97.49-2.59.49-3.73,0-2.59-1.3-5.35-1.3-7.45,0-1.94.65-3.73.65-6.48,0-2.11-.32-3.89-.32-6,0-1.94.32-2.92.32-4.05,0-2.43-.65-4.86-.65-6.64,0-2.11.81-4.21.81-6.97,0-1.78-.65-3.73-.65-5.19,0-2.92,2.92-3.24,5.51-3.24h2.59c1.62,0,4.05-.16,6.32-.16,5.67,0,6.8,1.13,6.8,2.59v1.94c0,1.46.32,2.75.32,4.05,0,1.94-1.46,4.05-1.46,6,0,.81,1.46,2.92,1.46,5.02,0,1.62-1.3,3.89-1.3,5.18,0,.65,1.62,4.05,1.62,6.48s-1.13,4.7-1.13,6.81c0,1.94,1.13,4.38,1.13,6.32,0,1.46-.97,3.4-.97,5.18s1.94,2.92,1.94,4.86c.97,4.21,4.54,6.16,8.43,9.56,1.3,1.13,4.38.97,6.32,1.62,0,0,.97-.16,2.11-.16.49,0,.65,0,.65-.16h-.16c.49,0,.81-.16,1.13-.16,1.13,0,1.94.81,3.24.81.81,0,1.62-3.24,5.35-3.24.65,0,2.75-5.02,5.67-7.45,0,0,.16,0,.16-.16,0-.32-.16-1.13-.32-1.46,0-2.75,1.3-3.56,1.3-6.64,0-2.11-.81-4.54-.81-6.8,0-1.78.81-3.4.81-5.19,0-3.08-.97-6.16-.97-9.07,0-3.08.81-6,.81-9.24,0-1.62-.49-3.24-.65-5.02,0-1.62.49-3.24.49-4.86,0-1.46-.32-2.75-.32-3.89,0-3.73,10.53-2.75,17.5-2.75,3.24.32,4.21,1.13,4.21,3.24Z"/>
        <path class="cls-2" d="M414.74,75.86c0,3.08-.81,6.16-.81,8.59,0,3.24.65,5.83.65,7.78,0,1.78-.97,5.35-.97,8.1.65,2.59,1.13,4.54,1.13,7.62,0,4.86-.65,9.24-.65,13.94,0,1.13.16,2.43.16,3.56,0,2.27-.65,4.21-.65,6.48,0,2.11.49,3.4.49,4.38,0,1.3-.49,2.43-.49,5.02,0,3.08,1.13,6.81,1.13,10.05,0,4.54-2.43,5.35-5.51,5.35-.97,0-1.94-.16-2.75-.16-1.46,0-4.05.16-6.32.16-6,0-6.8-1.46-6.8-3.56,0-.81.16-1.62.16-2.59,0-.32,0-1.13-.16-1.3-1.13.49-2.43.97-4.05,1.46-2.75.97-3.89,3.08-6.81,4.21-3.89,1.46-11.5,2.43-13.12,2.27-1.78,0-3.89-.65-5.67-.65-1.62,0-3.56.16-5.35.16-8.26,0-18.31-7.45-23.33-12.48-4.86-6.97-9.88-12.96-9.88-23.01-.32-2.43-1.46-5.83-1.46-8.59,0-.65.16-1.3.32-1.94-.16-.32-.16-.65-.16-1.13,0-2.75,2.43-10.21,3.56-12.64,1.3-5.35,1.78-5.19,10.05-16.2,3.56-3.73,5.51-4.86,10.53-5.83,2.59-.81,3.73-2.92,6-3.73,3.73-1.3,9.88-1.78,12.15-1.78s4.21.65,6.16.65h3.56c6.32,0,10.37,3.4,17.34,7.62-.16-.81-.32-1.62-.32-2.27,0-3.08,1.62-3.89,9.07-3.89h8.59c3.4.49,4.21,2.11,4.21,4.38ZM388.33,105.35v-2.43c0-.97-4.38-2.92-4.38-6.64-.49-.81-10.21-5.67-9.07-5.67-.49,0-1.3.32-1.46.32-2.27,0-6.48-1.3-7.13-1.3-9.72,0-16.53,9.88-17.99,11.5-.97,1.13-.65,3.24-1.3,3.89-.49,1.62-1.46,2.75-1.46,4.38v1.62c0,.65-.16,1.3-.65,1.62,0,2.59.97,4.54.97,6.64,0,.97-.49,2.11-.49,3.24,0,.32,5.02,8.1,5.51,8.1,3.24,1.46,5.02,2.43,7.62,5.02.16.16.32.16.65.16.49,0,1.3-.16,1.62-.16,2.75,0,4.7.16,7.94,1.13,3.24,0,6-2.43,9.72-2.43,2.11-.32,9.24-10.21,9.24-12.31.32-2.59,1.62-6.32,1.62-9.07,0-.97-.16-1.94-.16-2.75,0-.32,0-.65.16-.97-.65-1.46-.97-2.43-.97-3.89Z"/>
      </g>
      <g class="cls-1">
        <path class="cls-3" d="M450.23,41.51c0,2.43-.97,5.67-.97,8.26,0,3.24.81,5.02.81,6.81,0,1.62-.97,4.38-.97,6.64,0,3.08,1.13,6,1.13,9.07,0,2.59-.49,4.05-1.62,7.29-.16.32-.16.65-.16.97,0,1.78,1.3,3.4,1.3,5.67,0,1.94-.65,3.89-.65,5.83,0,1.62.49,3.08.49,3.89,0,1.13-.65,1.94-.65,4.21,0,1.94,1.13,4.21,1.13,5.83.49-.32.49-.81.97-1.62,2.92-4.38,7.94-5.83,10.21-10.21,1.46-3.08,2.75-4.54,5.35-6.81,1.3-1.13,1.62-4.21,2.27-5.67,1.62-3.73,3.4-5.51,4.54-10.86,0-4.86,3.89-11.34,3.89-15.55,0-1.3-.16-2.59-.16-4.05.16-1.78.81-3.73.81-5.67,0-1.46-.32-2.92-.32-4.05,0-4.37,11.18-3.73,18.31-4.05,3.4.49,4.38,2.11,4.38,4.54,0,3.57-1.13,6.81-1.13,9.88,0,1.95.16,3.57.16,4.7,0,2.59-2.11,5.67-2.43,9.07v3.08c0,5.35-2.27,9.07-5.02,12.96-1.46,2.11-.65,4.38-1.62,6.81-1.13,2.92-3.08,4.38-4.21,7.13-1.46,3.57-4.54,4.54-5.51,8.75,1.78.49,4.05,2.27,6,2.75,3.08.81,4.7.97,7.29,3.24,1.13,1.13,1.94,2.92,3.4,3.4,2.92,1.13,1.62,1.62,5.02,3.89,1.46,1.13,2.43,1.46,3.73,2.92,1.13,1.78.81,3.4,2.27,4.54,3.56,2.11,6.48,4.7,6.48,11.18.32.97.97,1.78,1.46,2.59,1.62,2.43,1.46,3.73,1.46,6.48v.81c0,2.27,1.62,4.86,1.62,7.29,0,1.95-1.3,2.59-4.38,2.92-7.13,0-18.47.49-18.47-2.11,0-.65.32-1.3.32-2.11,0-1.3-.81-2.27-.81-3.4v-1.78c0-1.94-5.18-10.53-4.7-10.37-2.59-.97-3.24-4.38-4.86-5.02-2.92-.65-5.51-4.05-5.67-4.05-2.43,0-4.86-.16-6.97-2.43-.49-.65-.49-1.13-1.13-1.13s-1.62.65-2.27.65c-1.94,0-3.56-2.27-4.05-2.27-1.13,0-2.27.97-3.24.97-.49,0-.97,0-1.3-.16-3.57,2.27-7.94,5.35-11.99,6.81,0,2.59.49,4.86.49,6.97,0,2.92-.81,5.51-.81,9.24,0,1.94.65,4.7.65,6.64,0,3.56-3.24,3.73-6,3.73h-6.97c-6.48,0-9.24-.49-9.24-3.08,0-.65.16-1.46.16-2.43,0-1.62-.49-3.4-.49-4.86,0-2.43,1.46-4.86,1.46-7.29,0-.97-1.3-3.89-1.3-6.48,0-.65,0-1.3.16-1.94v-1.13c0-1.94.32-4.05.32-5.35-.49-1.94-.81-3.89-.81-5.83,0-2.75,1.13-5.51,1.13-8.26,0-2.59-1.13-5.18-1.13-7.45s.97-4.54.97-7.29c0-2.59-.81-5.19-.81-8.1,0-2.27.81-4.7.81-6.97,0-3.89-1.13-7.62-1.13-11.5,0-3.4.81-6.97.81-10.69,0-1.94-.49-3.89-.49-6,0-1.94.32-3.89.32-5.83,0-1.78-.32-3.4-.32-4.86,0-4.7,11.18-3.4,18.31-3.4,3.4.65,4.38,1.62,4.38,3.73Z"/>
        <path class="cls-3" d="M552.79,55.77c0,4.7-2.11,5.83-2.27,6.16-1.78,2.92-5.02,4.7-9.56,4.7-.32,0-7.29-.97-7.29-3.4-2.43-2.43-3.4-5.51-3.4-7.94,0-8.75,5.51-9.56,6-9.72,3.08-.97,2.75-1.46,6-1.46.97.32,10.53.65,10.53,11.18v.49ZM552.31,73.91c0,.81-.32,1.94-.32,3.24,0,1.62.49,2.92.49,4.38-.16,1.62-.65,3.24-.65,4.86.49,2.59.81,5.18.81,7.62,0,2.59-1.13,5.35-1.13,7.94,0,1.78.97,3.4.97,5.19,0,1.94-.97,3.56-.97,5.35,0,2.11.97,3.73.97,5.35s-1.13,3.73-1.13,5.51c0,1.94,1.13,3.89,1.13,5.83,0,2.27-1.46,5.19-1.46,5.83,0,1.13,1.13,3.08,1.13,4.54,0,2.11-1.3,3.89-1.3,4.54,0,1.46,1.46,3.73,1.46,5.35,0,1.13-.49,2.59-.49,3.73,0,.65.16.97.16,1.46,0,1.3-1.3,2.27-6.97,2.27-2.11,0-4.54-.16-6.16-.16h-2.75c-2.59,0-5.35-.16-5.35-2.59,0-1.3.49-3.24.49-4.54,0-2.43-.65-4.54-.65-6.8,0-1.78.49-4.38.49-5.83,0-.97-.32-2.27-.32-3.56,0-1.78.49-3.4.49-5.02,0-2.43-.65-3.89-.65-5.67,0-2.11,1.3-4.38,1.3-6.32,0-1.62-.65-2.27-.65-3.08,0-.65.49-1.78.49-2.92,0-1.46-.65-2.75-.65-4.05,0-1.78,1.13-2.75,1.13-4.05,0-2.75-1.62-3.89-1.62-5.83,0-2.11.49-4.38,1.13-6.32,0-1.94-.97-3.89-.97-5.35,0-1.3.65-3.08.65-5.02,0-1.62-.81-4.05-.81-5.51,0-1.94,1.13-2.43,4.21-2.75,6.8,0,17.5-.81,17.5,2.43Z"/>
        <path class="cls-3" d="M633,38.1c7.62,0,9.07.65,9.07,3.4,0,1.46-.32,3.08-.32,4.7,0,1.94.49,3.73.49,5.83s-.65,4.05-.65,6.16c0,3.89.81,7.62.81,11.34s-1.13,7.29-1.13,10.86c0,2.27.81,4.54.81,6.8,0,2.75-.81,5.35-.81,7.94,0,2.75.97,5.02.97,7.13,0,2.43-1.13,5.51-1.13,8.1s1.13,5.35,1.13,8.26c0,2.75-1.46,6.81-1.46,7.94,0,1.95,1.13,4.54,1.13,6.64,0,2.59-1.3,4.86-1.3,5.83,0,2.11,1.46,4.86,1.46,7.29,0,1.62-.49,3.24-.49,4.86v2.59c0,1.78-.81,3.08-6.64,3.08-2.43,0-4.86-.16-6.32-.16-.81,0-1.94.16-2.92.16-2.11,0-5.18-.49-5.18-3.08-5.67,1.94-8.59,3.89-13.45,3.89-.81,0-1.78,0-2.92-.16-24.79-3.24-22.52-7.78-33.06-20.58-4.37-5.18-6.64-15.55-6.64-21.39,0-4.86.81-11.18,1.94-16.37,4.7-17.01,23.98-29.81,43.75-29.81,3.4,0,6.32.49,9.88,1.13.49-2.59.81-4.21,1.46-6.48,0-2.75-1.13-5.83-1.13-7.62,0-1.62.81-4.05.81-6.8,0-1.95-.81-4.86-.81-7.62,0-2.11.81-3.4,4.21-3.89h8.43ZM611.94,89.79c-.49-.16-.81-.16-1.13-.16s-.65,0-1.13.32c-3.24,1.62-7.13,2.11-10.53,2.11-1.78,0-7.94,6.16-11.34,9.56-1.13,0-.97,7.45-2.92,13.45.16,4.38,3.08,8.59,4.38,13.29.97,3.56,10.69,7.62,16.2,8.43,2.11-.16,6.64-1.95,9.4-3.08,2.59-1.13,4.05-3.73,6-4.54,0-1.13-.16-1.94-.32-3.4,0-3.08.49-5.67.49-8.59,0-3.4-.81-5.51-.81-7.78,0-2.75,1.46-5.83,1.46-8.59,0-2.43-.81-3.4-.81-4.38s.49-2.75.49-4.86c-3.24,0-6.16-.32-9.4-1.78Z"/>
        <path class="cls-3" d="M677.24,55.77c0,4.7-2.11,5.83-2.27,6.16-1.78,2.92-5.02,4.7-9.56,4.7-.32,0-7.29-.97-7.29-3.4-2.43-2.43-3.4-5.51-3.4-7.94,0-8.75,5.51-9.56,6-9.72,3.08-.97,2.75-1.46,6-1.46.97.32,10.53.65,10.53,11.18v.49ZM676.75,73.91c0,.81-.32,1.94-.32,3.24,0,1.62.49,2.92.49,4.38-.16,1.62-.65,3.24-.65,4.86.49,2.59.81,5.18.81,7.62,0,2.59-1.13,5.35-1.13,7.94,0,1.78.97,3.4.97,5.19,0,1.94-.97,3.56-.97,5.35,0,2.11.97,3.73.97,5.35s-1.13,3.73-1.13,5.51c0,1.94,1.13,3.89,1.13,5.83,0,2.27-1.46,5.19-1.46,5.83,0,1.13,1.13,3.08,1.13,4.54,0,2.11-1.3,3.89-1.3,4.54,0,1.46,1.46,3.73,1.46,5.35,0,1.13-.49,2.59-.49,3.73,0,.65.16.97.16,1.46,0,1.3-1.3,2.27-6.97,2.27-2.11,0-4.54-.16-6.16-.16h-2.75c-2.59,0-5.35-.16-5.35-2.59,0-1.3.49-3.24.49-4.54,0-2.43-.65-4.54-.65-6.8,0-1.78.49-4.38.49-5.83,0-.97-.32-2.27-.32-3.56,0-1.78.49-3.4.49-5.02,0-2.43-.65-3.89-.65-5.67,0-2.11,1.3-4.38,1.3-6.32,0-1.62-.65-2.27-.65-3.08,0-.65.49-1.78.49-2.92,0-1.46-.65-2.75-.65-4.05,0-1.78,1.13-2.75,1.13-4.05,0-2.75-1.62-3.89-1.62-5.83,0-2.11.49-4.38,1.13-6.32,0-1.94-.97-3.89-.97-5.35,0-1.3.65-3.08.65-5.02,0-1.62-.81-4.05-.81-5.51,0-1.94,1.13-2.43,4.21-2.75,6.81,0,17.5-.81,17.5,2.43Z"/>
      </g>
    </g>
    <g class="cls-1">
      <g class="cls-1">
        <path d="M243.05,174.32c1.04,0,1.95.22,2.72.66.78.44,1.38,1.05,1.81,1.83.43.78.64,1.7.64,2.74s-.21,1.94-.64,2.76c-.43.82-1.03,1.47-1.81,1.94-.78.47-1.68.71-2.72.71h-6.08l.11-.19v8.16c0,.15-.06.28-.18.38s-.25.16-.4.16c-.18,0-.32-.05-.42-.16-.1-.11-.15-.24-.15-.38v-18.06c0-.15.05-.28.16-.38.11-.11.24-.16.38-.16h6.57ZM243.05,183.87c.84,0,1.56-.19,2.15-.56.59-.38,1.05-.89,1.38-1.55.33-.66.49-1.4.49-2.22s-.16-1.56-.49-2.18c-.33-.61-.79-1.09-1.38-1.44-.59-.35-1.31-.52-2.15-.52h-6.05l.08-.14v8.68l-.11-.08h6.08Z"/>
      </g>
      <g class="cls-1">
        <path d="M257.67,193.75c-1.37,0-2.58-.29-3.63-.88-1.05-.58-1.87-1.41-2.48-2.48-.6-1.07-.9-2.32-.9-3.76,0-1.53.3-2.84.89-3.91.59-1.08,1.36-1.9,2.3-2.48.94-.57,1.94-.86,3-.86.77,0,1.51.12,2.24.37.73.25,1.38.63,1.96,1.15.58.52,1.04,1.17,1.4,1.94.36.78.55,1.7.59,2.78,0,.15-.05.28-.16.4s-.24.18-.38.18h-11.17l-.16-1.04h11.03l-.27.25v-.49c-.09-.97-.4-1.78-.92-2.44-.52-.66-1.14-1.15-1.88-1.49-.73-.34-1.49-.51-2.27-.51-.55,0-1.12.12-1.72.37-.6.25-1.16.62-1.67,1.12s-.93,1.14-1.25,1.9c-.32.77-.48,1.66-.48,2.68,0,1.11.22,2.13.67,3.07.45.93,1.11,1.68,2,2.24.88.57,1.97.85,3.27.85.62,0,1.2-.1,1.75-.31.55-.21,1.04-.49,1.48-.83.44-.35.79-.72,1.07-1.12.15-.16.3-.25.47-.25.13,0,.24.05.33.15.09.1.14.21.14.34s-.04.24-.11.33c-.57.73-1.29,1.37-2.18,1.91-.89.55-1.87.82-2.94.82Z"/>
        <path d="M278.03,179.66c.16,0,.3.05.4.16.1.11.15.24.15.38v18.2c0,.15-.05.27-.17.38-.11.11-.24.16-.38.16-.16,0-.3-.05-.4-.16-.1-.11-.15-.24-.15-.38v-9.36l.44-.6c0,.62-.14,1.25-.42,1.88-.28.63-.68,1.21-1.21,1.72-.52.52-1.13.94-1.82,1.25-.69.31-1.44.46-2.25.46-1.2,0-2.29-.31-3.24-.95-.96-.63-1.71-1.49-2.27-2.57s-.83-2.31-.83-3.68.28-2.6.83-3.68c.56-1.09,1.31-1.94,2.27-2.56.96-.62,2.04-.93,3.24-.93.75,0,1.46.14,2.15.42.68.28,1.29.68,1.82,1.19.53.51.95,1.11,1.26,1.79.31.68.46,1.43.46,2.23l-.44-.69v-4.13c0-.14.05-.27.15-.38.1-.11.23-.16.4-.16ZM272.29,192.71c1.04,0,1.96-.26,2.75-.79s1.42-1.26,1.88-2.19c.46-.93.68-1.99.68-3.18s-.23-2.24-.68-3.16-1.09-1.65-1.89-2.18-1.71-.79-2.74-.79-1.91.27-2.71.79c-.8.53-1.44,1.25-1.9,2.18-.47.92-.7,1.97-.7,3.16s.23,2.22.7,3.15,1.1,1.67,1.9,2.2c.8.54,1.71.81,2.71.81Z"/>
        <path d="M293.44,179.82c.16,0,.3.05.4.16.1.11.15.24.15.38v7.96c0,1.77-.5,3.1-1.49,3.98s-2.31,1.33-3.96,1.33-2.93-.44-3.93-1.33c-.99-.88-1.49-2.21-1.49-3.98v-7.96c0-.14.05-.27.16-.38s.24-.16.38-.16c.16,0,.3.05.4.16.1.11.15.24.15.38v7.96c0,1.39.39,2.45,1.16,3.18s1.83,1.09,3.16,1.09,2.41-.36,3.19-1.09,1.16-1.79,1.16-3.18v-7.96c0-.14.05-.27.15-.38.1-.11.23-.16.4-.16Z"/>
        <path d="M304.69,193.75c-1.37,0-2.58-.29-3.63-.88-1.05-.58-1.87-1.41-2.48-2.48-.6-1.07-.9-2.32-.9-3.76,0-1.53.3-2.84.89-3.91.59-1.08,1.36-1.9,2.3-2.48.94-.57,1.94-.86,3-.86.77,0,1.51.12,2.24.37.73.25,1.38.63,1.96,1.15.58.52,1.04,1.17,1.4,1.94.36.78.55,1.7.59,2.78,0,.15-.05.28-.16.4s-.24.18-.38.18h-11.17l-.16-1.04h11.03l-.27.25v-.49c-.09-.97-.4-1.78-.92-2.44-.52-.66-1.14-1.15-1.88-1.49-.73-.34-1.49-.51-2.27-.51-.55,0-1.12.12-1.72.37-.6.25-1.16.62-1.67,1.12s-.93,1.14-1.25,1.9c-.32.77-.48,1.66-.48,2.68,0,1.11.22,2.13.67,3.07.45.93,1.11,1.68,2,2.24.88.57,1.97.85,3.27.85.62,0,1.2-.1,1.75-.31.55-.21,1.04-.49,1.48-.83.44-.35.79-.72,1.07-1.12.15-.16.3-.25.47-.25.13,0,.24.05.33.15.09.1.14.21.14.34s-.04.24-.11.33c-.57.73-1.29,1.37-2.18,1.91-.89.55-1.87.82-2.94.82Z"/>
        <path d="M319.96,179.38c1.15,0,2.08.23,2.8.68.72.46,1.25,1.08,1.59,1.86.34.79.51,1.66.51,2.63v8.38c0,.15-.05.28-.16.38s-.24.16-.38.16c-.16,0-.3-.05-.4-.16-.1-.11-.15-.24-.15-.38v-8.27c0-.78-.13-1.49-.4-2.13-.26-.64-.68-1.15-1.26-1.53-.58-.38-1.33-.58-2.26-.58-.8,0-1.59.19-2.35.58-.77.38-1.4.89-1.9,1.53-.5.64-.75,1.35-.75,2.13v8.27c0,.15-.05.28-.17.38-.11.11-.24.16-.38.16-.16,0-.3-.05-.4-.16-.1-.11-.15-.24-.15-.38v-12.56c0-.14.06-.27.17-.38s.24-.16.38-.16c.16,0,.3.05.4.16s.15.24.15.38v2.68l-.68,1.31c0-.66.17-1.29.52-1.89.35-.6.8-1.13,1.37-1.6.57-.47,1.19-.83,1.88-1.1.68-.26,1.36-.4,2.04-.4ZM316.13,177.66c-.26,0-.39-.08-.41-.25-.02-.16,0-.4.08-.71.17-.6.46-1.03.88-1.29s.85-.38,1.29-.38c.29,0,.6.08.92.23.32.15.64.33.97.52.33.19.64.37.93.52.29.16.56.23.79.23.27,0,.49-.1.66-.31.16-.21.27-.5.33-.86.02-.15.07-.26.16-.36.09-.09.21-.14.36-.14.27,0,.42.09.44.26.02.17,0,.4-.05.67-.09.44-.24.79-.45,1.05-.21.26-.46.45-.74.56-.28.11-.59.16-.92.16-.26,0-.54-.07-.85-.22s-.62-.31-.94-.51c-.32-.19-.62-.36-.92-.51-.29-.14-.56-.22-.79-.22-.27,0-.51.09-.71.26-.2.17-.37.47-.49.89-.04.13-.1.22-.21.29s-.21.1-.31.1Z"/>
        <path d="M342.05,186.58c0,1.35-.29,2.57-.88,3.65-.58,1.09-1.38,1.94-2.4,2.57-1.01.63-2.17.95-3.46.95s-2.43-.31-3.45-.95c-1.02-.63-1.83-1.49-2.42-2.57s-.89-2.3-.89-3.65.3-2.6.89-3.68c.59-1.09,1.4-1.94,2.42-2.57,1.02-.63,2.17-.94,3.45-.94s2.45.31,3.46.94c1.01.63,1.81,1.49,2.4,2.57.58,1.08.88,2.31.88,3.68ZM340.96,186.58c0-1.19-.24-2.24-.72-3.16-.48-.92-1.15-1.65-2-2.19-.85-.54-1.82-.81-2.92-.81s-2.04.27-2.9.81c-.86.54-1.53,1.27-2.03,2.19-.49.92-.74,1.97-.74,3.16s.25,2.21.74,3.13c.49.92,1.17,1.65,2.03,2.19.86.54,1.82.81,2.9.81s2.07-.27,2.92-.81c.85-.54,1.51-1.27,2-2.19.48-.92.72-1.97.72-3.13Z"/>
        <path d="M344.98,191.29c-.13-.22-.19-.4-.18-.54,0-.14.08-.25.21-.34.09-.09.21-.13.37-.12.16,0,.29.08.4.21.47.68,1.08,1.22,1.82,1.64.74.42,1.61.63,2.61.63.6,0,1.18-.1,1.74-.3.56-.2,1.01-.5,1.37-.9.36-.4.53-.89.53-1.48,0-.62-.17-1.12-.52-1.49-.35-.37-.79-.67-1.34-.89-.55-.22-1.12-.4-1.72-.55-.64-.16-1.25-.35-1.82-.56-.57-.21-1.08-.47-1.52-.79-.44-.32-.79-.7-1.04-1.14-.26-.44-.38-.96-.38-1.56,0-.71.19-1.35.58-1.92.38-.57.92-1.01,1.61-1.33.69-.32,1.5-.48,2.41-.48.44,0,.9.05,1.4.16.49.11.99.3,1.48.56.49.27.95.63,1.37,1.11.15.11.21.24.21.4,0,.15-.08.3-.21.42-.11.07-.23.11-.36.11s-.24-.05-.33-.16c-.47-.53-1.03-.92-1.66-1.18-.63-.26-1.3-.38-2.01-.38-.6,0-1.16.1-1.68.3-.52.2-.94.5-1.27.89-.33.39-.49.89-.49,1.49.04.56.23,1.03.59,1.39.36.37.83.67,1.42.9.59.24,1.26.46,2.01.66.6.15,1.16.31,1.68.51.52.19.98.43,1.37.73.39.29.7.66.93,1.09s.34.99.34,1.64c0,.77-.21,1.43-.62,1.98-.41.56-.98.99-1.7,1.29s-1.55.45-2.48.45-1.86-.19-2.74-.57c-.88-.38-1.67-1.01-2.38-1.89Z"/>
      </g>
      <g class="cls-1">
        <path d="M373.43,193.75c-1.37,0-2.58-.29-3.63-.88-1.05-.58-1.87-1.41-2.48-2.48-.6-1.07-.9-2.32-.9-3.76,0-1.53.3-2.84.89-3.91.59-1.08,1.36-1.9,2.3-2.48.94-.57,1.94-.86,3-.86.77,0,1.51.12,2.24.37.73.25,1.38.63,1.96,1.15.57.52,1.04,1.17,1.4,1.94s.55,1.7.59,2.78c0,.15-.05.28-.16.4s-.24.18-.38.18h-11.17l-.16-1.04h11.03l-.27.25v-.49c-.09-.97-.4-1.78-.92-2.44-.52-.66-1.15-1.15-1.88-1.49-.73-.34-1.49-.51-2.27-.51-.55,0-1.12.12-1.72.37-.6.25-1.16.62-1.67,1.12s-.93,1.14-1.25,1.9-.48,1.66-.48,2.68c0,1.11.22,2.13.67,3.07.45.93,1.11,1.68,2,2.24.88.57,1.98.85,3.27.85.62,0,1.21-.1,1.75-.31.55-.21,1.04-.49,1.48-.83.44-.35.79-.72,1.07-1.12.15-.16.3-.25.47-.25.13,0,.24.05.33.15.09.1.14.21.14.34s-.04.24-.11.33c-.57.73-1.29,1.37-2.18,1.91-.89.55-1.87.82-2.94.82Z"/>
      </g>
      <g class="cls-1">
        <path d="M381.94,179.52c.18,0,.33.08.44.25l9.88,12.95c.07.09.11.2.11.33,0,.14-.05.27-.15.38s-.22.16-.37.16c-.16,0-.32-.08-.46-.25l-9.91-12.92c-.07-.09-.11-.2-.11-.33,0-.16.06-.3.18-.41.12-.11.25-.16.4-.16ZM381.94,193.59c-.13,0-.25-.04-.36-.12s-.16-.21-.16-.4c0-.13.04-.24.11-.33l4.79-6.21.66.85-4.6,5.99c-.11.14-.26.22-.44.22ZM391.85,179.52c.18,0,.31.04.4.14s.12.2.12.33c0,.05-.01.12-.04.18-.03.06-.06.12-.1.18l-4.79,6.4-.58-.96,4.52-6.02c.14-.16.3-.25.46-.25Z"/>
        <path d="M402.11,179.66c1.22,0,2.31.3,3.26.9.95.6,1.7,1.43,2.26,2.48.56,1.05.83,2.25.83,3.6s-.28,2.53-.83,3.59c-.56,1.06-1.31,1.89-2.27,2.5-.96.61-2.04.92-3.24.92-.6,0-1.18-.09-1.74-.26-.56-.17-1.07-.42-1.55-.74-.47-.32-.91-.71-1.3-1.19-.39-.47-.74-1.01-1.03-1.62l.36-.38v8.95c0,.15-.05.27-.15.38-.1.11-.23.16-.4.16-.15,0-.27-.05-.38-.16s-.17-.24-.17-.38v-18.2c0-.14.05-.27.15-.38.1-.11.23-.16.4-.16s.3.05.4.16c.1.11.15.24.15.38v3.5l-.36-.19c.26-.68.57-1.26.96-1.75s.82-.89,1.31-1.21c.49-.31,1.02-.54,1.59-.68.56-.15,1.15-.22,1.75-.22ZM402.06,180.7c-1.04,0-1.96.26-2.75.77-.79.51-1.42,1.21-1.87,2.09s-.68,1.91-.68,3.08.23,2.18.68,3.08c.46.9,1.08,1.61,1.87,2.12.79.51,1.71.77,2.75.77s1.93-.25,2.72-.77c.79-.51,1.42-1.22,1.89-2.12.46-.9.7-1.93.7-3.08s-.23-2.17-.7-3.06-1.09-1.6-1.89-2.11c-.79-.51-1.7-.77-2.72-.77Z"/>
      </g>
      <g class="cls-1">
        <path d="M413.61,192.93c0,.15-.05.28-.16.38s-.24.16-.38.16c-.17,0-.3-.05-.4-.16s-.15-.24-.15-.38v-19.16c0-.15.05-.27.16-.38s.24-.16.38-.16c.16,0,.3.05.4.16s.15.24.15.38v19.16Z"/>
      </g>
      <g class="cls-1">
        <path d="M431.05,186.58c0,1.35-.29,2.57-.88,3.65s-1.38,1.94-2.39,2.57c-1.01.63-2.17.95-3.46.95s-2.43-.31-3.45-.95c-1.02-.63-1.83-1.49-2.42-2.57-.59-1.09-.89-2.3-.89-3.65s.3-2.6.89-3.68c.59-1.09,1.4-1.94,2.42-2.57,1.02-.63,2.17-.94,3.45-.94s2.45.31,3.46.94c1.01.63,1.81,1.49,2.39,2.57.58,1.08.88,2.31.88,3.68ZM429.95,186.58c0-1.19-.24-2.24-.73-3.16s-1.15-1.65-2-2.19c-.85-.54-1.82-.81-2.92-.81s-2.04.27-2.9.81c-.86.54-1.53,1.27-2.03,2.19-.49.92-.74,1.97-.74,3.16s.25,2.21.74,3.13c.49.92,1.17,1.65,2.03,2.19.86.54,1.83.81,2.9.81s2.07-.27,2.92-.81c.85-.54,1.51-1.27,2-2.19s.73-1.97.73-3.13Z"/>
      </g>
      <g class="cls-1">
        <path d="M435.48,193.48c-.17,0-.3-.05-.4-.16s-.15-.24-.15-.38v-12.56c0-.14.05-.27.16-.38s.24-.16.38-.16c.16,0,.3.05.4.16.1.11.15.24.15.38v4.63l-.46.71c0-.71.12-1.43.37-2.16s.61-1.41,1.08-2.04,1.05-1.14,1.74-1.53c.68-.39,1.47-.59,2.37-.59.25,0,.53.04.82.11s.44.25.44.52c0,.16-.05.3-.14.41-.09.11-.21.16-.36.16-.11,0-.24-.04-.4-.12s-.38-.12-.67-.12c-.58,0-1.16.17-1.72.52-.57.35-1.08.81-1.55,1.38-.47.58-.83,1.2-1.11,1.88-.27.68-.41,1.33-.41,1.97v6.84c0,.15-.05.28-.16.38s-.24.16-.38.16Z"/>
      </g>
      <g class="cls-1">
        <path d="M456.45,179.82c.16,0,.3.05.4.16.1.11.15.24.15.38v12.56c0,.15-.05.28-.17.38-.11.11-.24.16-.38.16-.16,0-.3-.05-.4-.16-.1-.11-.15-.24-.15-.38v-3.88l.44-.36c0,.58-.15,1.18-.44,1.78-.29.6-.69,1.15-1.21,1.64s-1.11.89-1.81,1.19c-.69.3-1.44.45-2.25.45-1.22,0-2.31-.32-3.27-.96-.96-.64-1.71-1.5-2.26-2.6-.55-1.09-.82-2.33-.82-3.7s.28-2.61.83-3.68c.56-1.07,1.31-1.91,2.27-2.52s2.04-.92,3.24-.92c.79,0,1.52.14,2.22.42.69.28,1.3.68,1.82,1.19.52.51.93,1.11,1.22,1.79.29.68.44,1.43.44,2.23l-.44-.69v-3.97c0-.14.05-.27.15-.38.1-.11.23-.16.4-.16ZM450.7,192.71c1.02,0,1.93-.27,2.74-.81.8-.54,1.43-1.28,1.89-2.22s.68-2,.68-3.19-.23-2.16-.68-3.08-1.09-1.65-1.89-2.19c-.8-.54-1.71-.81-2.74-.81s-1.91.26-2.71.78c-.8.52-1.44,1.24-1.9,2.15-.47.91-.7,1.96-.7,3.15s.23,2.25.68,3.19,1.08,1.68,1.89,2.22c.8.54,1.71.81,2.74.81Z"/>
        <path d="M472.84,173.23c.16,0,.3.05.4.16.1.11.15.24.15.38v19.16c0,.15-.05.28-.17.38-.11.11-.24.16-.38.16-.16,0-.3-.05-.4-.16-.1-.11-.15-.24-.15-.38v-3.88l.44-.6c0,.62-.14,1.25-.42,1.88-.28.63-.68,1.21-1.21,1.72-.52.52-1.13.94-1.82,1.25-.69.31-1.44.46-2.25.46-1.2,0-2.29-.31-3.24-.95-.96-.63-1.71-1.49-2.27-2.57s-.83-2.31-.83-3.68.28-2.6.83-3.68c.56-1.09,1.31-1.94,2.27-2.56.96-.62,2.04-.93,3.24-.93.75,0,1.46.14,2.15.42.68.28,1.29.68,1.82,1.19.53.51.95,1.11,1.26,1.79.31.68.46,1.43.46,2.23l-.44-.69v-10.56c0-.15.05-.27.15-.38.1-.11.23-.16.4-.16ZM467.09,192.71c1.04,0,1.96-.26,2.75-.79s1.42-1.26,1.88-2.19c.46-.93.68-1.99.68-3.18s-.23-2.24-.68-3.16-1.09-1.65-1.89-2.18-1.71-.79-2.74-.79-1.91.27-2.71.79c-.8.53-1.44,1.25-1.9,2.18-.47.92-.7,1.97-.7,3.16s.23,2.22.7,3.15,1.1,1.67,1.9,2.2c.8.54,1.71.81,2.71.81Z"/>
        <path d="M490.58,186.58c0,1.35-.29,2.57-.88,3.65-.58,1.09-1.38,1.94-2.4,2.57-1.01.63-2.17.95-3.46.95s-2.43-.31-3.45-.95c-1.02-.63-1.83-1.49-2.42-2.57s-.89-2.3-.89-3.65.3-2.6.89-3.68c.59-1.09,1.4-1.94,2.42-2.57,1.02-.63,2.17-.94,3.45-.94s2.45.31,3.46.94c1.01.63,1.81,1.49,2.4,2.57.58,1.08.88,2.31.88,3.68ZM489.48,186.58c0-1.19-.24-2.24-.72-3.16-.48-.92-1.15-1.65-2-2.19-.85-.54-1.82-.81-2.92-.81s-2.04.27-2.9.81c-.86.54-1.53,1.27-2.03,2.19-.49.92-.74,1.97-.74,3.16s.25,2.21.74,3.13c.49.92,1.17,1.65,2.03,2.19.86.54,1.82.81,2.9.81s2.07-.27,2.92-.81c.85-.54,1.51-1.27,2-2.19.48-.92.72-1.97.72-3.13Z"/>
      </g>
      <g class="cls-1">
        <path d="M495.4,193.48c-.17,0-.3-.05-.4-.16-.1-.11-.15-.24-.15-.38v-12.56c0-.14.05-.27.16-.38s.24-.16.38-.16c.16,0,.3.05.4.16s.15.24.15.38v4.63l-.47.71c0-.71.12-1.43.37-2.16.25-.73.61-1.41,1.08-2.04s1.05-1.14,1.74-1.53,1.47-.59,2.37-.59c.26,0,.53.04.82.11s.44.25.44.52c0,.16-.05.3-.14.41-.09.11-.21.16-.36.16-.11,0-.24-.04-.4-.12-.15-.08-.38-.12-.67-.12-.58,0-1.16.17-1.72.52-.57.35-1.08.81-1.55,1.38-.47.58-.83,1.2-1.11,1.88-.27.68-.41,1.33-.41,1.97v6.84c0,.15-.05.28-.17.38-.11.11-.24.16-.38.16Z"/>
      </g>
      <g class="cls-1">
        <path d="M510.95,193.75c-1.37,0-2.58-.29-3.63-.88-1.05-.58-1.87-1.41-2.48-2.48-.6-1.07-.9-2.32-.9-3.76,0-1.53.3-2.84.89-3.91.59-1.08,1.36-1.9,2.3-2.48.94-.57,1.94-.86,3-.86.77,0,1.51.12,2.24.37s1.38.63,1.96,1.15c.57.52,1.04,1.17,1.4,1.94.36.78.55,1.7.59,2.78,0,.15-.05.28-.16.4s-.24.18-.38.18h-11.17l-.16-1.04h11.03l-.27.25v-.49c-.09-.97-.4-1.78-.92-2.44-.52-.66-1.14-1.15-1.88-1.49s-1.49-.51-2.27-.51c-.55,0-1.12.12-1.72.37-.6.25-1.16.62-1.67,1.12-.51.5-.93,1.14-1.24,1.9-.32.77-.48,1.66-.48,2.68,0,1.11.22,2.13.67,3.07.45.93,1.11,1.68,2,2.24.88.57,1.97.85,3.27.85.62,0,1.2-.1,1.75-.31.55-.21,1.04-.49,1.48-.83.44-.35.79-.72,1.07-1.12.15-.16.3-.25.47-.25.13,0,.24.05.33.15.09.1.14.21.14.34s-.04.24-.11.33c-.57.73-1.29,1.37-2.18,1.91-.89.55-1.87.82-2.94.82Z"/>
        <path d="M519.24,191.29c-.13-.22-.19-.4-.18-.54,0-.14.08-.25.21-.34.09-.09.21-.13.37-.12.15,0,.29.08.4.21.47.68,1.08,1.22,1.82,1.64.74.42,1.61.63,2.61.63.6,0,1.18-.1,1.74-.3.56-.2,1.01-.5,1.37-.9.36-.4.53-.89.53-1.48,0-.62-.17-1.12-.52-1.49-.35-.37-.79-.67-1.34-.89s-1.12-.4-1.72-.55c-.64-.16-1.25-.35-1.82-.56-.57-.21-1.08-.47-1.52-.79-.44-.32-.78-.7-1.04-1.14-.26-.44-.38-.96-.38-1.56,0-.71.19-1.35.57-1.92.38-.57.92-1.01,1.62-1.33.69-.32,1.5-.48,2.41-.48.44,0,.9.05,1.4.16.49.11.98.3,1.48.56.49.27.95.63,1.37,1.11.15.11.21.24.21.4s-.08.3-.21.42c-.11.07-.23.11-.36.11s-.24-.05-.33-.16c-.47-.53-1.03-.92-1.66-1.18-.63-.26-1.3-.38-2.01-.38-.6,0-1.16.1-1.68.3-.52.2-.94.5-1.27.89s-.49.89-.49,1.49c.04.56.23,1.03.59,1.39.36.37.83.67,1.42.9.59.24,1.26.46,2.01.66.6.15,1.16.31,1.68.51s.98.43,1.37.73c.39.29.7.66.93,1.09s.34.99.34,1.64c0,.77-.21,1.43-.62,1.98s-.98.99-1.7,1.29-1.55.45-2.48.45-1.86-.19-2.74-.57c-.88-.38-1.67-1.01-2.38-1.89Z"/>
        <path d="M551.43,173.23c.16,0,.3.05.4.16s.15.24.15.38v19.16c0,.15-.05.28-.16.38s-.24.16-.38.16c-.16,0-.3-.05-.4-.16-.1-.11-.15-.24-.15-.38v-3.88l.44-.6c0,.62-.14,1.25-.42,1.88-.28.63-.69,1.21-1.21,1.72s-1.13.94-1.82,1.25c-.69.31-1.44.46-2.24.46-1.2,0-2.29-.31-3.24-.95-.96-.63-1.72-1.49-2.27-2.57s-.83-2.31-.83-3.68.28-2.6.83-3.68c.56-1.09,1.31-1.94,2.27-2.56.96-.62,2.04-.93,3.24-.93.75,0,1.46.14,2.15.42.68.28,1.29.68,1.82,1.19.53.51.95,1.11,1.26,1.79.31.68.46,1.43.46,2.23l-.44-.69v-10.56c0-.15.05-.27.15-.38.1-.11.23-.16.4-.16ZM545.68,192.71c1.04,0,1.96-.26,2.75-.79s1.42-1.26,1.87-2.19c.46-.93.69-1.99.69-3.18s-.23-2.24-.69-3.16c-.46-.92-1.08-1.65-1.89-2.18-.8-.53-1.72-.79-2.74-.79s-1.91.27-2.71.79c-.8.53-1.44,1.25-1.9,2.18-.47.92-.7,1.97-.7,3.16s.23,2.22.7,3.15,1.1,1.67,1.9,2.2c.8.54,1.71.81,2.71.81Z"/>
        <path d="M562.68,193.75c-1.37,0-2.58-.29-3.63-.88-1.05-.58-1.88-1.41-2.48-2.48-.6-1.07-.9-2.32-.9-3.76,0-1.53.3-2.84.89-3.91.59-1.08,1.36-1.9,2.3-2.48.94-.57,1.94-.86,3-.86.77,0,1.51.12,2.24.37.73.25,1.38.63,1.96,1.15.58.52,1.04,1.17,1.4,1.94s.55,1.7.59,2.78c0,.15-.05.28-.16.4s-.24.18-.38.18h-11.17l-.16-1.04h11.03l-.27.25v-.49c-.09-.97-.4-1.78-.92-2.44-.52-.66-1.14-1.15-1.88-1.49-.73-.34-1.49-.51-2.27-.51-.55,0-1.12.12-1.72.37-.6.25-1.16.62-1.67,1.12s-.93,1.14-1.25,1.9c-.32.77-.48,1.66-.48,2.68,0,1.11.22,2.13.67,3.07.45.93,1.11,1.68,2,2.24s1.97.85,3.27.85c.62,0,1.2-.1,1.75-.31.55-.21,1.04-.49,1.48-.83.44-.35.79-.72,1.07-1.12.15-.16.3-.25.46-.25.13,0,.24.05.33.15.09.1.14.21.14.34s-.04.24-.11.33c-.57.73-1.29,1.37-2.18,1.91-.88.55-1.87.82-2.94.82Z"/>
        <path d="M572.97,192.93c0,.15-.05.28-.16.38-.11.11-.24.16-.38.16-.16,0-.3-.05-.4-.16-.1-.11-.15-.24-.15-.38v-19.16c0-.15.05-.27.16-.38s.24-.16.38-.16c.16,0,.3.05.4.16s.15.24.15.38v19.16Z"/>
        <path d="M597.68,186.58c0,1.35-.29,2.57-.88,3.65s-1.38,1.94-2.39,2.57c-1.01.63-2.17.95-3.46.95s-2.43-.31-3.45-.95c-1.02-.63-1.83-1.49-2.42-2.57s-.89-2.3-.89-3.65.3-2.6.89-3.68c.59-1.09,1.4-1.94,2.42-2.57,1.02-.63,2.17-.94,3.45-.94s2.45.31,3.46.94c1.01.63,1.81,1.49,2.39,2.57.58,1.08.88,2.31.88,3.68ZM596.59,186.58c0-1.19-.24-2.24-.73-3.16s-1.15-1.65-2-2.19c-.85-.54-1.82-.81-2.92-.81s-2.04.27-2.9.81c-.86.54-1.53,1.27-2.03,2.19s-.74,1.97-.74,3.16.25,2.21.74,3.13,1.17,1.65,2.03,2.19c.86.54,1.83.81,2.9.81s2.07-.27,2.92-.81c.85-.54,1.51-1.27,2-2.19s.73-1.97.73-3.13Z"/>
        <path d="M607.43,179.38c.82,0,1.59.09,2.31.27s1.3.42,1.75.72.67.62.67.95c0,.13-.05.25-.15.37s-.22.18-.37.18c-.2,0-.36-.05-.48-.16-.12-.11-.24-.24-.37-.4s-.33-.3-.6-.42c-.26-.13-.62-.24-1.08-.33-.47-.09-1.04-.14-1.71-.14-1.06,0-2.03.27-2.9.82-.88.55-1.57,1.28-2.09,2.2-.52.92-.78,1.96-.78,3.11s.24,2.22.72,3.15c.48.93,1.16,1.67,2.03,2.2.87.54,1.88.81,3.03.81.82,0,1.45-.08,1.88-.23.43-.15.8-.32,1.11-.51.38-.22.65-.43.79-.63.14-.2.32-.3.52-.3.15,0,.26.04.34.14.08.09.12.21.12.36,0,.22-.2.51-.6.86-.4.36-.96.67-1.68.95s-1.57.41-2.56.41c-1.33,0-2.51-.31-3.53-.95-1.02-.63-1.82-1.49-2.39-2.57-.58-1.09-.86-2.31-.86-3.68,0-1.28.29-2.46.86-3.54.57-1.09,1.38-1.96,2.41-2.63s2.24-1,3.63-1Z"/>
      </g>
      <g class="cls-1">
        <path d="M623.26,193.75c-1.37,0-2.58-.29-3.63-.88-1.05-.58-1.87-1.41-2.48-2.48-.6-1.07-.9-2.32-.9-3.76,0-1.53.3-2.84.89-3.91.59-1.08,1.36-1.9,2.3-2.48.94-.57,1.94-.86,3-.86.77,0,1.51.12,2.24.37.73.25,1.38.63,1.96,1.15.57.52,1.04,1.17,1.4,1.94s.55,1.7.59,2.78c0,.15-.05.28-.16.4s-.24.18-.38.18h-11.17l-.16-1.04h11.03l-.27.25v-.49c-.09-.97-.4-1.78-.92-2.44-.52-.66-1.15-1.15-1.88-1.49-.73-.34-1.49-.51-2.27-.51-.55,0-1.12.12-1.72.37-.6.25-1.16.62-1.67,1.12s-.93,1.14-1.25,1.9-.48,1.66-.48,2.68c0,1.11.22,2.13.67,3.07.45.93,1.11,1.68,2,2.24.88.57,1.98.85,3.27.85.62,0,1.21-.1,1.75-.31.55-.21,1.04-.49,1.48-.83.44-.35.79-.72,1.07-1.12.15-.16.3-.25.47-.25.13,0,.24.05.33.15.09.1.14.21.14.34s-.04.24-.11.33c-.57.73-1.29,1.37-2.18,1.91-.89.55-1.87.82-2.94.82ZM622.14,178.54c-.09,0-.16-.04-.22-.11-.05-.07-.08-.14-.08-.22,0-.09.05-.21.14-.36l1.7-2.54c.05-.09.14-.19.26-.29.12-.1.27-.15.45-.15.2,0,.37.05.51.16s.21.28.21.52c0,.11-.02.2-.05.26-.04.06-.08.13-.14.21l-2.05,2.11c-.09.09-.2.18-.31.27-.12.09-.25.14-.4.14Z"/>
      </g>
      <g class="cls-1">
        <path d="M643.98,179.82c.16,0,.3.05.4.16.1.11.15.24.15.38v12.56c0,.15-.05.28-.17.38-.11.11-.24.16-.38.16-.16,0-.3-.05-.4-.16-.1-.11-.15-.24-.15-.38v-3.88l.44-.36c0,.58-.15,1.18-.44,1.78-.29.6-.69,1.15-1.21,1.64s-1.11.89-1.81,1.19c-.69.3-1.44.45-2.25.45-1.22,0-2.31-.32-3.27-.96-.96-.64-1.71-1.5-2.26-2.6-.55-1.09-.82-2.33-.82-3.7s.28-2.61.83-3.68c.56-1.07,1.31-1.91,2.27-2.52s2.04-.92,3.24-.92c.79,0,1.52.14,2.22.42.69.28,1.3.68,1.82,1.19.52.51.93,1.11,1.22,1.79.29.68.44,1.43.44,2.23l-.44-.69v-3.97c0-.14.05-.27.15-.38.1-.11.23-.16.4-.16ZM638.23,192.71c1.02,0,1.93-.27,2.74-.81.8-.54,1.43-1.28,1.89-2.22s.68-2,.68-3.19-.23-2.16-.68-3.08-1.09-1.65-1.89-2.19c-.8-.54-1.71-.81-2.74-.81s-1.91.26-2.71.78c-.8.52-1.44,1.24-1.9,2.15-.47.91-.7,1.96-.7,3.15s.23,2.25.68,3.19,1.08,1.68,1.89,2.22c.8.54,1.71.81,2.74.81Z"/>
        <path d="M655.28,179.38c1.15,0,2.08.23,2.81.68.72.46,1.25,1.08,1.59,1.86.34.79.51,1.66.51,2.63v8.38c0,.15-.05.28-.16.38s-.24.16-.38.16c-.16,0-.3-.05-.4-.16-.1-.11-.15-.24-.15-.38v-8.27c0-.78-.13-1.49-.4-2.13-.26-.64-.68-1.15-1.26-1.53-.57-.38-1.33-.58-2.26-.58-.8,0-1.59.19-2.35.58-.77.38-1.4.89-1.9,1.53-.5.64-.75,1.35-.75,2.13v8.27c0,.15-.05.28-.16.38s-.24.16-.38.16c-.17,0-.3-.05-.4-.16s-.15-.24-.15-.38v-12.56c0-.14.05-.27.16-.38s.24-.16.38-.16c.16,0,.3.05.4.16.1.11.15.24.15.38v2.68l-.68,1.31c0-.66.17-1.29.52-1.89.35-.6.8-1.13,1.37-1.6.57-.47,1.19-.83,1.88-1.1.68-.26,1.36-.4,2.04-.4Z"/>
        <path d="M677.37,186.58c0,1.35-.29,2.57-.88,3.65-.58,1.09-1.38,1.94-2.4,2.57-1.01.63-2.17.95-3.46.95s-2.43-.31-3.45-.95c-1.02-.63-1.83-1.49-2.42-2.57s-.89-2.3-.89-3.65.3-2.6.89-3.68c.59-1.09,1.4-1.94,2.42-2.57,1.02-.63,2.17-.94,3.45-.94s2.45.31,3.46.94c1.01.63,1.81,1.49,2.4,2.57.58,1.08.88,2.31.88,3.68ZM676.27,186.58c0-1.19-.24-2.24-.72-3.16-.48-.92-1.15-1.65-2-2.19-.85-.54-1.82-.81-2.92-.81s-2.04.27-2.9.81c-.86.54-1.53,1.27-2.03,2.19-.49.92-.74,1.97-.74,3.16s.25,2.21.74,3.13c.49.92,1.17,1.65,2.03,2.19.86.54,1.82.81,2.9.81s2.07-.27,2.92-.81c.85-.54,1.51-1.27,2-2.19.48-.92.72-1.97.72-3.13Z"/>
      </g>
    </g>
  </g>
  <path class="cls-2" d="M254.32,54.7c0,4.7-2.11,5.83-2.27,6.16-1.78,2.92-5.02,4.7-9.56,4.7-.32,0-7.29-.97-7.29-3.4-2.43-2.43-3.4-5.51-3.4-7.94,0-8.75,5.51-9.56,6-9.72,3.08-.97,2.75-1.46,5.99-1.46.97.32,10.53.65,10.53,11.18v.49h0ZM311.85,54.7c0,4.7-2.11,5.83-2.27,6.16-1.78,2.92-5.02,4.7-9.56,4.7-.32,0-7.29-.97-7.29-3.4-2.43-2.43-3.4-5.51-3.4-7.94,0-8.75,5.51-9.56,6-9.72,3.08-.97,2.75-1.46,5.99-1.46.97.32,10.53.65,10.53,11.18v.49h0Z"/>
</svg>